<svg xmlns="http://www.w3.org/2000/svg" width="144" height="14" fill="none" viewBox="0 0 144 14"><g clip-path="url(#a)"><g fill="#fff" fill-opacity="0.8" clip-path="url(#b)"><path d="M27.956 12.833v-.338c-.055 0-3.597.193-5.341.193-2.29 0-5.56-.049-5.56-.049l-15.042-.096v-.29l15.097-.048s3.27.048 5.559.048h5.287c0-.145-.055-.386-.055-.58-.054 0-3.542.242-5.232.242-2.289 0-5.56-.145-5.56-.145H13.24l-5.123-.144h-6.05c0-.049.055-.242.055-.29.218.048.381.096 1.144.096.981 0 1.417-.193 1.417-.193s.709.193 1.635.193c.436 0 1.418-.386 2.017-.241.981.241 1.363-.145 1.363-.145s.218.242.654.338c.327.048.763-.145.763-.145s.545.338 2.125.338c1.908 0 2.453-.917 2.453-.917h.054s-.054.241.055.434c.218.387.817.435.817.435-.054-1.062.436-1.787.436-1.787h.055l-.11.29c-.217.773.164 1.449.164 1.449l.164-.097s-.164-.483 0-1.159c.163-.676.436-1.014.436-1.014h.109s-.164.531-.164.918c0 .338.218 1.159.927 1.4.545.193.98-.242.98-.242s1.2.29 2.181.29c2.344 0 2.889-.338 2.889-.338s.163.242 1.362.242c.709 0 1.254-.049 1.58-.097.11 0 .164 0 .219-.048 0-.193-.055-.338-.11-.531-.653-3.236-2.779-6.036-5.722-7.823l-.163.434c2.888 1.69 5.014 4.346 5.613 7.485-.327.097-.817.242-1.417.242-.926 0-1.144-.242-1.144-.242s-.327.193-.927.193c-.545 0-.926-.338-.926-.338s-.545.483-1.526.483c-1.145 0-1.745-.628-1.963-.917a3 3 0 0 1-.327-.531h-.054c0 .096.054.24.109.386.163.386.272.483.327.58.054.048.109.192-.055.24-.109.049-.163-.048-.218-.096-.054-.096-.272-.338-.381-.724-.164-.435-.164-.724-.218-.966h-.11c-.054.193-.054.531-.054.918.055.434.164.724.218.82 0 0 .055.049.055.097 0 .145-.11.193-.218.193-.11 0-.218-.096-.273-.193-.49-.724.11-2.173.273-2.608.272-.627.327-1.255.327-1.255s.327-.483.49-.82c.218-.436.382-.822.546-.967.218-.193.599-.676.98-1.303.055-.097.382-.773.437-.918.054-.097.108-.241.163-.338.163-.58.327-1.255.327-1.352 0-.145-.272-.241-.272-.241s-.273-.097-.436-.097c-.11 0-.218.097-.328.145-.163.048-.218 0-.218 0s-.218-.097-.326-.048c-.11 0-.218.144-.328.144a1 1 0 0 1-.218.049s-.163-.049-.272-.049c-.11.049-.218.097-.436.242A15.6 15.6 0 0 0 14.33.906C6.863.906.76 6.217.65 12.833v.338h27.306zM10.57 10.418c-.055 0 0-.048-.055-.048.382-1.062 1.254-3.235 2.67-4.877.164.048.273.145.437.193-1.036 1.014-2.398 2.994-3.052 4.732m.817.338c.273-.965.981-2.994 2.507-4.925.164.096.273.145.436.241-1.035 1.208-2.289 3.139-2.834 4.733-.054 0-.054-.049-.109-.049m1.09.242h-.054c.218-.773.817-2.801 2.234-4.78.164.096.273.144.382.24-.981 1.304-2.071 3.091-2.562 4.54m1.036 0h-.055c.218-.725.709-2.511 1.908-4.298.163.097.327.193.381.29-.872 1.159-1.798 2.704-2.234 4.008m3.597-3.236c-.273 0-.654-.096-.763-.29.054.339.49.628.872.628-.11 0-.164.049-.273.049-.49 0-.926-.387-.926-.821v-.193c.381.29 1.199.676 1.69.096v.049c-.055.241-.328.482-.6.482m1.526-1.883c0 .145-.11.193-.218.242-.055.048-.218.096-.218.144h-.055s-.054-.048-.109-.048v-.193s-.054-.097 0-.193c0-.145.164-.242.164-.242h.054l-.109.194c0 .048-.054.193 0 .29v.096l.055.048.054-.048c.11-.048.11-.097.11-.097s-.11-.096-.055-.193c.054-.096.218-.096.218-.096.054-.145 0-.242 0-.242l.109.048c-.055-.048 0 .097 0 .29m.708-4.104c.164-.049.218-.145.382-.193s.273 0 .382 0 .272-.145.38-.145c.11 0 .165.048.274.048.054.097.381-.097.436-.097s.272 0 .218.194c-.055.144-.164.579-.382 1.158-.054.145-.163.338-.272.532-.11.193-.219.434-.382.627-.6.87-1.2.676-2.344 1.16-.926.386-1.308.627-1.417.772-.109-.097-.163-.097-.272-.145.163-.145.545-.386 1.308-.724.817-.387 2.18-.87 2.453-1.304V3.56c-.328.194-.6.29-.71.387-1.307.58-1.798.724-2.397 1.014-.273.145-.709.338-.981.53-.055-.047-.164-.096-.218-.144.272-.193.654-.386 1.035-.58.6-.24 1.09-.482 2.507-1.207.11-.048.818-.434 1.363-.82 0-.049 0-.097.055-.145-.491.241-2.072 1.014-2.399 1.159-1.308.579-1.253.53-1.853.82-.381.194-.763.387-1.035.58-.055-.048-.164-.097-.218-.145.327-.193.6-.386 1.035-.58.6-.29.654-.337 2.017-.917.654-.29 1.853-1.014 2.507-1.352v-.097c-.654.338-2.562 1.208-2.834 1.353-1.308.53-1.472.579-2.071.869-.327.145-.654.338-.927.483l-.163-.145c.218-.145.6-.387 1.09-.628.6-.29.708-.338 2.016-.918.164-.048.818-.386 1.417-.724.164-.096.382-.193.546-.29.163-.096.272-.193.381-.241l-.055-.048c-.272.096-.654.29-.763.338-.708.338-1.58.724-1.853.82-1.308.58-1.471.628-2.07.918-.328.145-.71.338-.927.531l-.164-.145a6.4 6.4 0 0 1 1.09-.627c.6-.29.709-.338 2.017-.918.218-.096.436-.193.6-.29.054 0 .653-.29 1.198-.627m-4.469-.29c1.254 0 2.507.145 3.652.483-.218.145-.545.29-.981.483-1.526.676-1.69.724-2.344 1.014a6 6 0 0 0-1.035.58s-.273-.339-.436-.435c-.164-.097-.545-.193-.654-.242-.218-.096-.273-.193-.6-.29-.272-.096-.49-.048-.654-.048a1.9 1.9 0 0 0-.6-.096c-.163 0-.38.096-.544.096-.218 0-.382-.048-.545-.048-.164.048-.382.193-.6.193-.163.048-.381 0-.49 0-.11.048-.382.242-.545.29-.11.048-.437.048-.382.29 0 .193.49.241.49.241s2.126.241 4.197 1.207c-.272.338-.6.676-.817 1.062a2.3 2.3 0 0 0-.49-.096c-.219 0-.437.096-.6.048-.327 0-.327-.048-.709 0-.272.048-.272.097-.49.145-.164.048-.327 0-.6.048-.109.049-.327.242-.49.29-.11.048-.328.048-.491.145-.109.097-.109.193-.381.29-.164.096-.273.048-.437.193-.109.193-.109.338-.381.531-.327.241-.327.435-.273.483.11.193.6 0 .6 0s1.744-.531 3.815-.628a28 28 0 0 0-1.253 2.511c-.055.145-.11.29-.164.386h-.054c-.11-.096-.11-.241-.055-.58.055-.337.382-1.013.49-1.158h-.108c-.11.145-.436.676-.491.773-.109.193-.163.241-.381.676-.055.096-.164.29-.327.29-.11 0-.218-.049-.218-.145 0-.049.054-.145.109-.145.272-.387.49-.773.545-.966h-.11S8.28 10.9 6.646 10.9c-.545 0-1.144-.241-1.144-.241s-.763.29-1.799.29c-.817 0-1.308-.145-1.526-.194 1.145-5.215 6.214-9.271 12.7-9.271M52.7 12.88l-.11-.047c-.654-.29-.872-1.111-1.199-1.835l-3.324-7.823h-3.161v.241l.163.049s.164.048.218.096c.164.097.327.29.11.773a1 1 0 0 1-.11.435l-2.616 6.229c-.273.676-.49 1.545-1.145 1.835l-.218.096v.242h3.543v-.242l-.272-.096c-.327-.097-.382-.387-.055-1.207l.382-1.111h3.76c.11.241.218.58.382 1.062.163.483.436 1.11.054 1.304l-.218.096v.242H52.7zm-4.58-4.006h-2.507l1.254-3.09zM75.7 3.175v.241l.272.097c.437.145.382 1.062.382 1.642v6.036c0 .483 0 1.497-.382 1.642l-.272.096v.242h3.597v-.242l-.273-.096c-.436-.145-.381-1.16-.381-1.642V5.155c0-.821.109-1.545.381-1.642l.273-.097v-.24zm-13.518 0v.241l.273.097c.436.145.382 1.062.382 1.642v6.036c0 .483 0 1.497-.382 1.642l-.273.096v.242h3.598v-.242l-.273-.096c-.436-.145-.381-1.16-.381-1.642V5.155c0-.821.109-1.545.381-1.642l.273-.097v-.24zm-20.219-.869c-.817-.724-2.07-1.11-3.433-1.11h-4.633v.24l.218.049c.6.241.545 1.545.545 2.511v6.567c0 .724 0 2.028-.545 2.221l-.218.097v.242h4.251v-.242l-.163-.097c-.764-.434-.764-1.4-.764-2.414V8.245l.437.145s.708.242 1.362.242c1.962 0 4.088-1.208 4.088-3.815 0-.966-.382-1.835-1.145-2.511m-4.142 5.408-.381.048h-.218v-4.49c.272-.049.6-.049 1.035-.049.872 0 1.58.194 1.962.58.382.338.545.772.545 1.4 0 1.497-1.526 2.415-2.943 2.511M99.9 1.195h-7.358v.29l.326.097c.49.193.49 1.303.49 1.931v7.244c0 .579 0 1.786-.49 1.98l-.327.096v.29h4.088v-.29l-.327-.097c-.49-.193-.49-1.352-.49-1.98V8.39h2.398s1.035-.096 1.199.29l.054.145.273.048.163-3.187h-.381l-.055.193c-.109.242-1.035.338-1.308.29h-2.398V3.224H98.7c.709 0 1.09.144 1.2.482l.053.194h.327l.763-2.85c.109.097-.872.145-1.144.145m-38.916 9.272-.054.048a1 1 0 0 1-.218.145c-.654.386-1.744.82-2.834.82-.872 0-1.58-.24-2.18-.724-.709-.627-1.09-1.642-1.09-2.8 0-1.835 1.199-3.09 2.943-3.09q1.226 0 2.452.723l.218.145.436.242V3.368l-.327-.048c-1.09-.242-1.962-.386-2.725-.386-1.526 0-2.834.482-3.815 1.352-1.035.917-1.635 2.317-1.635 3.863 0 1.593.545 2.897 1.58 3.815 1.036.917 2.562 1.4 4.306 1.4.872 0 1.69-.145 2.344-.483h.054l.11-.048.054-.097.763-2.318h-.382zm27.851 0-.327.193c-.654.386-1.744.82-2.834.82-.872 0-1.58-.24-2.18-.724-.709-.627-1.09-1.642-1.09-2.8 0-1.835 1.199-3.09 2.943-3.09q1.226 0 2.453.723l.654.387V3.368l-.273-.048c-1.09-.242-1.962-.386-2.725-.386-1.526 0-2.834.482-3.815 1.352-1.036.917-1.635 2.317-1.635 3.863 0 1.593.545 2.897 1.58 3.815 1.036.917 2.562 1.4 4.306 1.4.872 0 1.69-.145 2.344-.483l.163-.048.818-2.415h-.382zM73.792 3.175h-6.595v.242l.273.096c.436.145.381 1.063.381 1.642v6.036c0 .483 0 1.497-.381 1.642l-.273.096v.242h3.598v-.242l-.273-.096c-.436-.145-.381-1.16-.381-1.642v-1.98h1.962s.871-.048.98.242l.055.145.218.048.163-2.656h-.272l-.055.145c-.054.193-.871.29-1.09.241h-2.016V4.914h2.67c.6 0 .927.144 1.036.386l.054.145h.273l.654-2.366c.109 0-.763.096-.981.096m46.217 0v.242l.218.096c.491.29.545.725.545 1.545v4.588c-1.526-1.932-4.904-6.52-4.904-6.52h-2.616v.242l.218.097c.49.29.545.773.545 1.593v5.988c0 .821 0 1.449-.545 1.739l-.164.096v.242h3.325v-.242l-.218-.096c-.491-.097-.491-.918-.491-1.739V6.7l3.27 4.153c.599.773 1.58 1.883 2.616 2.173.818.242.981.193.981.193V5.107c0-.821 0-1.304.545-1.594l.218-.096v-.242zm13.408 1.449c-1.09-.966-2.725-1.497-4.741-1.497h-4.088v.241l.218.049.109.048c.49.145.381 1.159.381 1.69v6.036c0 .724 0 1.352-.599 1.69l-.164.097v.193h4.034c3.705 0 6.322-2.076 6.322-5.07 0-1.4-.491-2.608-1.472-3.477m-1.908 6.036c-.763.628-1.798 1.014-3.106 1.014-.272 0-.436-.048-.763-.097v-6.76c.436-.097.654-.145 1.036-.145 1.253 0 2.179.29 2.833.87.654.579.981 1.545.981 2.703 0 .966-.381 1.835-.981 2.415m-20.275.676V5.058c0-.724 0-1.4.545-1.545l.218-.048-.163-.29h-3.706v.241l.218.049c.545.193.49.966.49 1.497v4.78c0 .483 0 .725-.272 1.063-.436.53-1.254.869-2.126.869-.708 0-1.199-.145-1.58-.483-.491-.386-.709-1.11-.709-2.028v-4.25c0-.579 0-1.352.491-1.497l.218-.048v-.193h-3.815v.241l.218.049c.49.145.545 1.062.49 1.786v4.105c0 1.014 0 2.028.927 2.946.763.724 1.907 1.11 3.216 1.11.925 0 2.07-.435 2.888-1.014v.773h3.106v-.242l-.218-.048c-.436-.193-.49-.821-.436-1.545m31.83-1.207c0 .772-.381 1.545-1.09 2.124-.818.725-1.962 1.11-3.216 1.11a8.8 8.8 0 0 1-2.779-.434h-.055l-.109-.048v-.145l-.436-1.787-.054-.29-.055-.24h.273l.381.386c.818.676 1.962.965 2.998.965.708 0 1.744-.434 1.744-1.159 0-.82-.872-1.207-2.017-1.69-1.362-.58-2.997-1.303-2.997-3.138 0-2.077 2.18-2.801 4.033-2.801.817 0 1.58.097 2.289.338h.055l.163.048v2.173l-.381-.241-.382-.193c-.327-.194-1.145-.483-1.853-.483-.273 0-.872.048-1.254.386a.79.79 0 0 0-.272.628c0 .724.981 1.159 2.016 1.593 1.308.58 2.998 1.304 2.998 2.898"/></g></g><defs><clipPath id="a"><path fill="#fff" d="M.357.635h143v13h-143z"/></clipPath><clipPath id="b"><path fill="#fff" d="M.357.635h143v13h-143z"/></clipPath></defs></svg>