<svg xmlns="http://www.w3.org/2000/svg" width="63" height="21" fill="none" viewBox="0 0 63 21"><g clip-path="url(#a)"><g clip-path="url(#b)"><path fill="#fff" fill-opacity="0.8" d="m26.968.147-10.381 7.79a8.87 8.87 0 0 0-3.205-4.841 9.26 9.26 0 0 0-5.574-1.907H.358v17.904h7.45a9.02 9.02 0 0 0 5.614-1.857 8.64 8.64 0 0 0 3.165-4.89l10.38 7.789 10.382-7.79v6.748h11.71v-3.634h-7.724V1.177h-4.26v6.747l-9.847 7.79-2.123-1.818 4.793-3.634 5.054-3.889-2.93-2.338-9.847 7.523-2.124-1.817 9.847-7.268-2.93-2.338zM4.343 4.81h3.191c.66.001 1.313.141 1.913.412A5.1 5.1 0 0 1 11.06 6.36a5.5 5.5 0 0 1 1.117 1.733 5.83 5.83 0 0 1 0 4.227 5.6 5.6 0 0 1-1.055 1.745c-.444.505-.99.918-1.602 1.211a4.7 4.7 0 0 1-2.024.448H4.343V4.811m58.002 10.648v3.634H50.648V1.177h4.259v14.282h7.45z"/></g></g><defs><clipPath id="a"><path fill="#fff" d="M.357.135h62v20h-62z"/></clipPath><clipPath id="b"><path fill="#fff" d="M.357.135h62v20h-62z"/></clipPath></defs></svg>