<svg xmlns="http://www.w3.org/2000/svg" width="121" height="24" fill="none" viewBox="0 0 121 24"><g clip-path="url(#a)"><g fill-rule="evenodd" clip-path="url(#b)" clip-rule="evenodd"><path fill="#CECCD3" d="m10.71 16.431 3.34 3.414-2.787 2.968a2.216 2.216 0 0 1-3.273 0l-6.955-7.407c-.904-.963-.904-2.524 0-3.486a2.216 2.216 0 0 1 3.273 0l5.318 5.664zm.867-.925 2.96-3.151 3.272 3.486-2.725 2.902z"/><path fill="#CECCD3" d="m24.966 18.677-3.488-3.258 8.195-8.727a2.216 2.216 0 0 1 3.273 0c.904.962.904 2.523 0 3.486zm-1.085 1.155-2.798 2.981a2.216 2.216 0 0 1-3.273 0L5.945 10.176c-.904-.963-.904-2.523 0-3.486a2.215 2.215 0 0 1 3.273 0l10.228 10.894 1.15-1.225z"/><path fill="#CECCD3" d="m19.937 14.62 3.258-3.502 6.07 6.466 5.318-5.663a2.216 2.216 0 0 1 3.273 0c.904.963.904 2.523 0 3.486l-6.954 7.406a2.215 2.215 0 0 1-3.272 0zm-1.35-1.437-7.732-8.236c-.904-.963-.904-2.523 0-3.486a2.215 2.215 0 0 1 3.273 0l7.74 8.245z"/><path fill="#CECCD3" d="M28.036 1.462a2.216 2.216 0 0 0-3.273 0L14.536 12.355l3.273 3.486L28.036 4.948c.904-.963.904-2.523 0-3.486"/><path fill="#fff" fill-opacity="0.8" d="M50.515 3.165h-2.846V20.97h10.428v-2.689h-7.582zm13.74 5.353c1.731 0 2.892.751 3.53 1.672l.136-1.43h2.46v12.21h-2.46l-.136-1.43c-.638.921-1.799 1.672-3.53 1.672-3.118 0-5.236-2.689-5.236-6.347 0-3.682 2.118-6.347 5.237-6.347m.593 2.568c-1.776 0-3.051 1.478-3.051 3.78 0 2.3 1.275 3.779 3.05 3.779 1.367 0 2.187-.776 2.801-1.817v-3.925c-.614-1.042-1.434-1.817-2.8-1.817m12.42-6.42h-2.732v4.095h-2.163v2.47h2.163v5.427c0 2.955 1.662 4.554 4.28 4.554 1.139 0 1.981-.339 2.55-.726l-.728-2.277c-.342.218-.842.387-1.571.387-1.07 0-1.799-.727-1.799-1.962v-5.402h3.461V8.76h-3.46zm9.416 0H83.95v4.095h-2.16v2.47h2.162v5.427c0 2.955 1.663 4.554 4.28 4.554 1.14 0 1.982-.339 2.55-.726l-.728-2.277c-.341.218-.842.387-1.57.387-1.07 0-1.8-.727-1.8-1.962v-5.402h3.461V8.76h-3.46zm8.663 4.095h-2.732v12.21h2.732zm-1.366-5.693c-.956 0-1.684.75-1.684 1.793 0 1.041.728 1.792 1.684 1.792.98 0 1.708-.75 1.708-1.792s-.729-1.793-1.708-1.793m9.62 5.45c-3.529 0-5.874 2.665-5.874 6.347 0 3.658 2.368 6.347 5.897 6.347 2.072 0 3.643-.993 4.668-2.689l-1.958-1.623c-.547.97-1.435 1.769-2.687 1.769-2.026 0-3.142-1.672-3.142-3.804 0-2.156 1.07-3.803 3.119-3.803 1.275 0 2.118.775 2.641 1.744l1.981-1.598c-1.024-1.696-2.55-2.69-4.645-2.69m11.374 0c3.529 0 5.259 2.81 5.259 6.226v1.018h-8.105c.068 1.938 1.161 3.004 3.073 3.004 1.344 0 2.323-.63 2.846-1.405l1.89 1.647c-1.138 1.453-2.641 2.204-4.758 2.204-3.552 0-5.829-2.664-5.829-6.322 0-3.683 2.322-6.372 5.624-6.372m-.046 2.326c-1.616 0-2.709 1.139-2.8 2.834h5.418c-.068-1.671-.979-2.834-2.618-2.834"/></g></g><defs><clipPath id="a"><path fill="#fff" d="M.357.735h120v22.8h-120z"/></clipPath><clipPath id="b"><path fill="#fff" d="M.357.735h120v22.8h-120z"/></clipPath></defs></svg>