<svg xmlns="http://www.w3.org/2000/svg" width="81" height="25" fill="none" viewBox="0 0 81 25"><g clip-path="url(#a)"><g fill="#fff" fill-opacity="0.8" clip-path="url(#b)"><path d="M49.08 13.642s-.161-.622-.161-1.084V5.344h2.734V19.24L42.9 11.58c-.469-.42-.746-.89-.746-.89s.139.518.139.966l-.003 7.27h-2.736V5.085l8.675 7.507c.465.416.851 1.05.851 1.05m24.758-8.297c4.333 0 5.443 1.805 5.443 4.4 0 1.882-1.31 3.725-3.955 3.943l-.29.014s.257.048.524.32l4.797 4.904H76.65l-6.698-7.186h3.335c2.987 0 3.074-1.663 3.095-2.083.056-1.08-.271-1.942-2.55-1.942H70.02v11.211h-2.842V5.345zM52.883 12.33c0-5.69 4.507-7.185 8.295-7.185 1.517 0 2.86.143 4.274.46l.004 2.885c-.813-.264-2.445-.844-4.277-.844-3.592 0-5.336 1.474-5.336 4.683 0 2.628 1.88 4.302 5.336 4.302 1.832 0 3.666-.46 4.555-.806l-.006 2.799a21.6 21.6 0 0 1-4.55.509c-4.046 0-8.295-2.078-8.295-6.804M22.112 5.694l2.667 2.654a6 6 0 0 0-.256.129 5 5 0 0 0-.558.36c-.44.32-1.013.83-1.746 1.665l-5.212 5.828c-.893.998-1.8 1.788-2.645 2.206l-2.668-2.655c.073-.036.157-.075.254-.13.154-.084.338-.2.559-.358.438-.322 1.013-.829 1.746-1.666l5.211-5.818c.894-.997 1.803-1.797 2.648-2.215"/><path d="M11.789 19.783c1.179 0 2.262-.247 2.997-.65a9 9 0 0 0 1.228-.843c.411-.339.994-.866 1.486-1.42l5.217-5.812c1.316-1.464 2.107-1.917 2.587-2.095l2.676 2.679c-.558.631-7.219 8.127-7.219 8.127a24 24 0 0 1-1.257 1.333 16 16 0 0 1-1.123.971c-1.567 1.213-3.659 2.197-6.477 2.197C5.52 24.27.357 18.779.357 12.456.357 4.612 6.157.06 11.44.06a10.6 10.6 0 0 1 3.945.606c.95.341 1.666.754 2.186 1.035-.614.416-1.21.984-2.19 2.09l-1.07 1.215a7.1 7.1 0 0 0-2.743-.457c-3.389.105-7.096 3.008-6.962 7.77.124 4.454 3.598 7.464 7.184 7.464"/><path d="M21.653 5.136a9 9 0 0 0-1.23.845c-.41.338-.992.866-1.486 1.418l-5.216 5.813c-1.316 1.464-2.107 1.915-2.587 2.093L8.458 12.63c.56-.632 7.22-8.127 7.22-8.127a25 25 0 0 1 1.257-1.334c.313-.305.847-.757 1.125-.972C19.624.984 21.72 0 24.537 0 30.92 0 36.08 5.492 36.08 11.813c0 7.846-5.798 12.395-11.081 12.395-1.618.052-2.919-.236-3.944-.607-.952-.34-1.672-.755-2.19-1.035.65-.463 1.205-.971 2.193-2.087l1.07-1.215c.246.099 1.34.502 2.743.458 3.388-.107 7.096-3.013 6.963-7.774-.126-4.45-3.602-7.462-7.186-7.462-1.18 0-2.26.248-2.996.65"/></g></g><defs><clipPath id="a"><path fill="#fff" d="M.357 0h80v24.27h-80z"/></clipPath><clipPath id="b"><path fill="#fff" d="M.357 0h80v24.27h-80z"/></clipPath></defs></svg>