<svg xmlns="http://www.w3.org/2000/svg" width="68" height="22" fill="none" viewBox="0 0 68 22"><g clip-path="url(#a)"><g fill="#fff" fill-opacity="0.8" clip-path="url(#b)"><path d="m16.986 21.635 37.254-3.401H13.757zM62.877 4.206a3.83 3.83 0 0 0-2.14.722v-.467h-2.502v11.562h2.503V9.264a2.3 2.3 0 0 1 .118-.872 2.2 2.2 0 0 1 .437-.75c.193-.217.426-.39.684-.507a1.97 1.97 0 0 1 1.638 0c.259.118.492.29.685.506.192.216.341.472.437.751.095.28.135.576.118.872v6.802h2.502V9.264c0-2.805-1.816-5.058-4.48-5.058m-10.413-.043c-2.906 0-4.965 2.678-4.965 6.079 0 3.57 2.584 6.079 5.207 6.079 1.332 0 2.987-.468 4.4-2.593l-2.22-1.36c-1.696 2.635-4.561 1.317-4.884-1.36h7.184c.646-4.082-1.897-6.845-4.722-6.845m-2.3 4.591c.524-2.678 3.995-2.848 4.48 0zm-8.38 3.874c-.022.53.057 1.059.233 1.556.177.496.446.95.793 1.336.346.385.763.692 1.225.903.461.212.959.323 1.463.328a5.1 5.1 0 0 0 2.421-.723l-1.614-2.295c-.248.186-.543.29-.848.297a1.2 1.2 0 0 1-.48-.12 1.2 1.2 0 0 1-.395-.313 1.3 1.3 0 0 1-.244-.452 1.3 1.3 0 0 1-.051-.518V7.655h2.139V4.89h-2.14V2h-2.502v2.89h-1.332v2.764h1.332zm-6.434 3.693a3.83 3.83 0 0 0 2.14-.723v.425h2.502V4.461H37.49v6.801a2.3 2.3 0 0 1-.118.872c-.096.28-.245.535-.437.751a2.1 2.1 0 0 1-.685.507 1.97 1.97 0 0 1-1.638 0 2.1 2.1 0 0 1-.684-.507 2.2 2.2 0 0 1-.437-.75 2.3 2.3 0 0 1-.118-.873V4.461H30.87v6.801c0 2.806 1.816 5.059 4.48 5.059"/><path d="m23.969 11.305 3.713 4.76h3.47l-4.964-6.163 4.279-5.441h-3.471l-3.027 4.038V.635h-2.543v15.43h2.543zm-6.459 4.208v.51h2.503V4.461h-2.502v.51a3.92 3.92 0 0 0-2.341-.808c-2.825 0-5.005 2.72-5.005 6.079s2.14 6.079 5.005 6.079c.842 0 1.662-.283 2.34-.808m-4.802-5.228c0-1.828 1.009-3.274 2.422-3.274 1.412 0 2.38 1.446 2.38 3.273 0 1.829-.968 3.274-2.38 3.274-1.413 0-2.422-1.445-2.422-3.274"/><path d="M9.358 6.544a5.12 5.12 0 0 0-1.385-3.516A4.6 4.6 0 0 0 4.635 1.57H.357v14.453h2.624V11.56h1.816l3.188 4.463h3.27L7.38 10.625A4.9 4.9 0 0 0 8.846 8.84c.344-.711.52-1.5.512-2.297M4.676 8.839H2.98V4.333h1.695c.567 0 1.111.238 1.512.66.402.423.627.996.627 1.593 0 .598-.225 1.17-.627 1.593-.4.423-.945.66-1.512.66"/></g></g><defs><clipPath id="a"><path fill="#fff" d="M.357.635h67v21h-67z"/></clipPath><clipPath id="b"><path fill="#fff" d="M.357.635h67v21h-67z"/></clipPath></defs></svg>