<svg xmlns="http://www.w3.org/2000/svg" width="55" height="21" fill="none" viewBox="0 0 55 21"><g clip-path="url(#a)"><path fill="#fff" fill-opacity="0.8" d="M5.832 5.24H.357V.135h17.016V5.24h-5.476v14.895H5.832zM18.315.135H34.86V5.24H24.38v2.463h10.48v4.804H24.38v2.522h10.48v5.106H18.315zm17.546 0h9.95c6.536 0 8.832 4.925 8.832 9.97 0 6.126-3.18 10.03-10.01 10.03h-8.772zm6.065 14.894h2.354c3.768 0 4.3-3.122 4.3-4.984 0-1.262-.413-4.745-4.77-4.745h-1.944z"/></g><defs><clipPath id="a"><path fill="#fff" d="M.357.135h54.286v20H.357z"/></clipPath></defs></svg>