<svg xmlns="http://www.w3.org/2000/svg" width="88" height="18" fill="none" viewBox="0 0 88 18"><g clip-path="url(#a)"><g fill="#fff" fill-opacity="0.8" clip-path="url(#b)"><path d="M58.213 15.318a4.3 4.3 0 0 0 3.103-1.23l1.54 1.69c-1.018 1.067-2.424 1.857-4.615 1.857-3.755 0-6.179-2.542-6.179-5.981a6 6 0 0 1 .395-2.255 5.9 5.9 0 0 1 1.21-1.929c.524-.555 1.15-1 1.843-1.308a5.65 5.65 0 0 1 2.193-.489h.208c3.727 0 5.84 2.894 5.656 6.911h-8.822c.314 1.668 1.461 2.73 3.468 2.73zm2.687-4.662c-.236-1.555-1.147-2.702-2.974-2.702a3 3 0 0 0-2.113.71 3.1 3.1 0 0 0-1.068 1.992zM.357 15.194 7.14 8.163H.518V5.954h9.765v2.253l-6.784 7.03h6.874v2.205H.357zm17.632.124a4.3 4.3 0 0 0 3.103-1.23l1.54 1.69c-1.018 1.067-2.424 1.857-4.616 1.857-3.754 0-6.178-2.542-6.178-5.981a6 6 0 0 1 .394-2.253 5.9 5.9 0 0 1 1.208-1.928c.523-.556 1.149-1 1.84-1.31a5.65 5.65 0 0 1 2.19-.49h.209c3.727 0 5.84 2.894 5.656 6.911H14.52c.314 1.668 1.46 2.73 3.468 2.73zm2.687-4.662c-.236-1.555-1.147-2.702-2.974-2.702a3 3 0 0 0-2.113.71 3.1 3.1 0 0 0-1.068 1.992zm17.297 1.01c0-3.676 2.69-5.973 5.652-5.973a4.8 4.8 0 0 1 2.063.438 4.9 4.9 0 0 1 1.688 1.286V.635h2.396V17.41h-2.396v-1.603a4.8 4.8 0 0 1-1.684 1.347 4.7 4.7 0 0 1-2.09.469 5.6 5.6 0 0 1-2.169-.458 5.7 5.7 0 0 1-1.832-1.27 5.8 5.8 0 0 1-1.216-1.889 5.9 5.9 0 0 1-.416-2.22v-.136zm9.537-.04a3.73 3.73 0 0 0-1.088-2.58 3.58 3.58 0 0 0-2.554-1.05 3.58 3.58 0 0 0-2.536 1.09 3.73 3.73 0 0 0-1.049 2.598c0 .973.377 1.907 1.049 2.598a3.58 3.58 0 0 0 2.536 1.09 3.58 3.58 0 0 0 2.554-1.05 3.73 3.73 0 0 0 1.088-2.58zm17.608 3.347 2.168-1.15c.288.521.71.953 1.22 1.248s1.089.443 1.675.427c1.355 0 2.058-.71 2.058-1.515 0-.918-1.312-1.126-2.75-1.423-1.92-.4-3.927-1.058-3.927-3.423 0-1.816 1.693-3.492 4.364-3.472 2.101 0 3.66.85 4.544 2.23L72.487 9.02a2.94 2.94 0 0 0-1.1-.991 2.9 2.9 0 0 0-1.434-.32c-1.288 0-1.944.645-1.944 1.379 0 .825 1.04 1.058 2.667 1.423 1.854.4 3.955 1.034 3.955 3.423 0 1.603-1.355 3.724-4.568 3.7-2.356 0-4.002-.966-4.949-2.666m16.029-2.66-1.9 2.112v2.99h-2.397V.635h2.396v10.983l5.087-5.7h2.918l-4.41 4.918 4.52 6.574h-2.71zM30.73 5.69c-2.847 0-5.231 1.884-5.231 5.01v6.71h2.443v-6.413c0-1.884 1.06-3.01 2.871-3.01s2.714 1.126 2.714 3.01v6.413h2.431v-6.714c0-3.126-2.384-5.01-5.231-5.01"/></g></g><defs><clipPath id="a"><path fill="#fff" d="M.357.635h87v17h-87z"/></clipPath><clipPath id="b"><path fill="#fff" d="M.357.635h87v17h-87z"/></clipPath></defs></svg>